<svg xmlns="http://www.w3.org/2000/svg" xmlns:xlink="http://www.w3.org/1999/xlink" viewBox="0 0 738 738"><defs><style>.cls-1{fill:url(#Безымянный_градиент_247);}.cls-2{fill:url(#Безымянный_градиент_2);}.cls-3{fill:url(#Безымянный_градиент_3);}.cls-4{fill:url(#Безымянный_градиент_2-2);}.cls-5{fill:url(#Безымянный_градиент_2-3);}</style><radialGradient id="Безымянный_градиент_247" cx="369" cy="369" r="369" gradientUnits="userSpaceOnUse"><stop offset="0" stop-color="#fff"/><stop offset="0.69" stop-color="#fcfcfc"/><stop offset="1" stop-color="#f7f7f7"/></radialGradient><linearGradient id="Безымянный_градиент_2" x1="172.84" y1="295.19" x2="321.86" y2="444.22" gradientUnits="userSpaceOnUse"><stop offset="0" stop-color="#ff2911"/><stop offset="1" stop-color="#e18e00"/></linearGradient><linearGradient id="Безымянный_градиент_3" x1="418.38" y1="300.73" x2="562.92" y2="445.26" gradientUnits="userSpaceOnUse"><stop offset="0" stop-color="#ffc900"/><stop offset="1" stop-color="#e18e00"/></linearGradient><linearGradient id="Безымянный_градиент_2-2" x1="250.88" y1="368.56" x2="489.81" y2="368.56" gradientTransform="translate(223.58 -132.89) rotate(28.83)" xlink:href="#Безымянный_градиент_2"/><linearGradient id="Безымянный_градиент_2-3" x1="425.8" y1="327.51" x2="547.07" y2="327.51" xlink:href="#Безымянный_градиент_2"/></defs><g id="Слой_2" data-name="Слой 2"><g id="Слой_2-2" data-name="Слой 2"><circle class="cls-1" cx="369" cy="369" r="369"/><path class="cls-2" d="M281.29,214.85h0a0,0,0,0,1,0,0V456.68a67.88,67.88,0,0,1-67.88,67.88h0a0,0,0,0,1,0,0V282.73A67.88,67.88,0,0,1,281.29,214.85Z"/><path class="cls-3" d="M524.59,222.64h0a0,0,0,0,1,0,0V455.48a67.88,67.88,0,0,1-67.88,67.88h0a0,0,0,0,1,0,0V290.52a67.88,67.88,0,0,1,67.88-67.88Z"/><path class="cls-4" d="M336.41,182.44h0a67.88,67.88,0,0,1,67.88,67.88V554.67a0,0,0,0,1,0,0h0a67.88,67.88,0,0,1-67.88-67.88V182.44A0,0,0,0,1,336.41,182.44Z" transform="translate(-131.81 224.22) rotate(-28.83)"/><path class="cls-5" d="M524.59,432.38v-67.7c-67.17-89.17-46-135-3.46-142C455,229,395,293.59,512.75,418A135.08,135.08,0,0,1,524.59,432.38Z"/></g></g></svg>